#!OML:ASF E:\inclinewalkrobotboard\Project 1\Capture day 1\Session 1\subject1.ASF
:FULLY-SPECIFIED
:DEGREES
1
root 6.73737 16.6019 35.0218 -170.521 0.701545 179.052
lowerback -8.62858 1.96843 -6.10763
upperback 1.8981 3.25434 0.873175
thorax 6.46186 1.34372 4.80586
lowerneck -5.57882 0.0691654 -4.41849
upperneck 33.7216 -6.75474 8.94595
head 12.5031 -4.04763 3.08027
rclavicle -7.8023e-015 1.21259e-014
rhumerus -34.3671 -25.9028 -78.6276
rradius 23.2282
rwrist 22.4724
rhand -18.1636 -46.0735
rfingers 7.12502
rthumb 8.1124 -75.8978
lclavicle -7.8023e-015 1.21259e-014
lhumerus -22.9313 14.6874 84.8587
lradius 16.516
lwrist -21.2833
lhand -32.1756 -21.5756
lfingers 7.12502
lthumb -5.4183 8.33509
rfemur -5.00658 2.45903 19.9277
rtibia 6.87269
rfoot -12.2533 -2.96314
rtoes -22.879
lfemur -9.7495 -9.77096 -19.4147
ltibia 14.1215
lfoot -12.1987 2.74903
ltoes -57.5535
2
root 6.73759 16.599 35.0279 -170.371 0.680258 179.018
lowerback -8.75137 1.96641 -6.19231
upperback 1.83853 3.267 0.87886
thorax 6.46244 1.34777 4.86586
lowerneck -5.38964 0.0314954 -4.5355
upperneck 33.5722 -6.83579 9.11945
head 12.4176 -4.08641 3.15926
rclavicle -2.25621e-014 -4.57205e-015
rhumerus -34.4172 -25.9373 -78.5901
rradius 23.3617
rwrist 22.6348
rhand -17.394 -45.761
rfingers 7.12502
rthumb 8.85514 -75.5552
lclavicle -2.25621e-014 -4.57205e-015
lhumerus -24.9413 5.28256 88.6765
lradius 14.2593
lwrist -30.7563
lhand -32.4689 -42.271
lfingers 7.12502
lthumb -5.70145 -12.3677
rfemur -5.27671 2.05407 19.8925
rtibia 6.89825
rfoot -11.9053 -2.94957
rtoes -24.6512
lfemur -9.96103 -9.76438 -19.4107
ltibia 14.1406
lfoot -13.4735 2.62436
ltoes -58.9935
3
root 6.73638 16.599 35.0324 -170.327 0.575648 178.977
lowerback -8.77964 1.95226 -6.21554
upperback 1.82767 3.25354 0.860802
thorax 6.46864 1.34063 4.85928
lowerneck -5.26231 -0.00807779 -4.74964
upperneck 33.4556 -6.95927 9.42627
head 12.372 -4.1419 3.30184
rclavicle -3.67752e-015 8.74653e-015
rhumerus -34.3816 -26.036 -78.6114
rradius 23.3282
rwrist 22.4925
rhand -17.5712 -45.1281
rfingers 7.12502
rthumb 8.68417 -74.9294
lclavicle -3.67752e-015 8.74653e-015
lhumerus -25.0977 4.5791 89.18
lradius 13.9848
lwrist -31.6953
lhand -25.2956 -21.9283
lfingers 7.12502
lthumb 1.22608 8.04793
rfemur -5.35278 1.77356 19.8636
rtibia 6.91523
rfoot -11.6858 -3.05146
rtoes -26.2465
lfemur -10.0913 -9.88483 -19.4615
ltibia 14.2421
lfoot -14.0106 3.507
ltoes -60.9973
4
root 6.73546 16.5997 35.0382 -170.354 0.441764 178.891
lowerback -8.73028 1.94789 -6.27281
upperback 1.84526 3.25432 0.819673
thorax 6.45869 1.33979 4.84595
lowerneck -5.24002 -0.0621466 -4.83798
upperneck 33.4219 -7.0935 9.60852
head 12.3771 -4.19582 3.37175
rclavicle 1.64494e-014 7.35503e-015
rhumerus -34.3925 -26.3831 -78.5282
rradius 23.2547
rwrist 22.5045
rhand -18.0061 -44.2887
rfingers 7.12502
rthumb 8.26448 -74.107
lclavicle 1.64494e-014 7.35503e-015
lhumerus -25.1042 4.20007 89.4954
lradius 13.9865
lwrist -31.7471
lhand -25.5045 -22.4672
lfingers 7.12502
lthumb 1.02433 7.5101
rfemur -5.3363 1.45304 19.7922
rtibia 6.89254
rfoot -11.4223 -3.19156
rtoes -28.1279
lfemur -10.3212 -10.342 -19.6114
ltibia 14.7178
lfoot -14.7249 4.73125
ltoes -62.97
5
root 6.73421 16.6001 35.0441 -170.386 0.383019 178.813
lowerback -8.67288 1.97478 -6.33404
upperback 1.84455 3.29605 0.778319
thorax 6.4192 1.36065 4.83868
lowerneck -5.52959 -0.0834132 -4.54757
upperneck 33.6316 -7.1233 9.38459
head 12.5135 -4.18563 3.22732
rclavicle 5.889e-015 -1.98785e-016
rhumerus -34.549 -26.843 -78.2892
rradius 23.3179
rwrist 23.0633
rhand -18.5841 -43.84
rfingers 7.12502
rthumb 7.7066 -73.6796
lclavicle 5.889e-015 -1.98785e-016
lhumerus -25.238 3.07533 90.1107
lradius 14.3834
lwrist -30.8445
lhand -25.0785 -21.1492
lfingers 7.12502
lthumb 1.4357 8.82572
rfemur -5.35493 1.18713 19.7162
rtibia 6.91104
rfoot -11.2129 -3.21576
rtoes -29.9541
lfemur -10.0912 -10.0796 -19.6529
ltibia 14.3287
lfoot -16.1161 4.86263
ltoes -64.421
6
root 6.72898 16.601 35.0454 -170.431 0.421701 178.819
lowerback -8.6704 2.03806 -6.25408
upperback 1.84952 3.37385 0.744021
thorax 6.41923 1.40261 4.76715
lowerneck -6.03307 -0.0581907 -4.01042
upperneck 33.9858 -7.04103 8.89782
head 12.7294 -4.11227 2.94847
rclavicle 1.83379e-014 -2.78299e-015
rhumerus -34.6852 -27.0506 -78.1559
rradius 23.3952
rwrist 23.1805
rhand -17.7078 -43.6623
rfingers 7.12502
rthumb 8.55229 -73.4691
lclavicle 1.83379e-014 -2.78299e-015
lhumerus -25.3794 3.26685 90.1169
lradius 14.1377
lwrist -32.4255
lhand -27.1172 -22.7476
lfingers 7.12502
lthumb -0.533279 7.23146
rfemur -5.4273 0.584433 19.7401
rtibia 6.91799
rfoot -10.7495 -3.10777
rtoes -31.8411
lfemur -9.91236 -10.2657 -19.6696
ltibia 14.305
lfoot -16.2311 4.9223
ltoes -64.3651
7
root 6.72199 16.6011 35.0421 -170.452 0.567311 178.936
lowerback -8.78238 2.11385 -6.07414
upperback 1.85494 3.46153 0.754558
thorax 6.48675 1.4493 4.69472
lowerneck -6.25554 -0.0472582 -3.73381
upperneck 34.1807 -7.01269 8.63389
head 12.8399 -4.0868 2.79756
rclavicle 6.33626e-015 -1.78906e-015
rhumerus -34.7509 -27.0046 -78.1291
rradius 23.3731
rwrist 22.624
rhand -17.3604 -42.9061
rfingers 7.12502
rthumb 8.88762 -72.699
lclavicle 6.33626e-015 -1.78906e-015
lhumerus -25.5511 3.02863 90.3394
lradius 14.0834
lwrist -33.3527
lhand -28.6446 -23.0494
lfingers 7.12502
lthumb -2.00846 6.92086
rfemur -5.44455 0.534488 19.8328
rtibia 6.96568
rfoot -10.8422 -2.91266
rtoes -32.1479
lfemur -9.73484 -10.4101 -19.5891
ltibia 14.2037
lfoot -16.3334 5.10182
ltoes -64.2011
8
root 6.71731 16.6019 35.043 -170.395 0.663721 179.017
lowerback -8.91482 2.11438 -6.00761
upperback 1.83571 3.45884 0.809943
thorax 6.54236 1.44731 4.72254
lowerneck -6.26829 -0.0282901 -3.81211
upperneck 34.2539 -7.0096 8.65788
head 12.877 -4.09834 2.82128
rclavicle 1.0461e-014 2.38542e-015
rhumerus -34.7046 -26.6114 -78.233
rradius 23.2954
rwrist 21.5099
rhand -22.5888 -39.5025
rfingers 7.12502
rthumb 3.84022 -69.4476
lclavicle 1.0461e-014 2.38542e-015
lhumerus -25.6605 3.34177 90.3741
lradius 14.0132
lwrist -34.3179
lhand -29.3013 -23.3455
lfingers 7.12502
lthumb -2.64268 6.61784
rfemur -5.56284 0.523894 19.8954
rtibia 7.05172
rfoot -10.8462 -2.79039
rtoes -32.1677
lfemur -9.67624 -10.3777 -19.5058
ltibia 13.9602
lfoot -16.215 5.12203
ltoes -63.9345
9
root 6.71496 16.6034 35.0513 -170.366 0.672284 178.904
lowerback -8.91362 2.07971 -6.14247
upperback 1.83335 3.428 0.810324
thorax 6.53596 1.42725 4.7947
lowerneck -6.27581 -0.0118258 -3.95889
upperneck 34.2697 -7.01225 8.78084
head 12.8949 -4.10713 2.89561
rclavicle -1.92324e-014 9.93923e-016
rhumerus -34.5822 -26.1492 -78.4318
rradius 23.2621
rwrist 20.2836
rhand -13.2693 -47.9361
rfingers 7.12502
rthumb 12.8336 -77.5216
lclavicle -1.92324e-014 9.93923e-016
lhumerus -25.664 3.81862 90.2699
lradius 13.9525
lwrist -35.1814
lhand -29.5028 -23.5071
lfingers 7.12502
lthumb -2.83732 6.45378
rfemur -5.67539 0.503724 19.7355
rtibia 7.15327
rfoot -10.8451 -2.74651
rtoes -31.6812
lfemur -9.63577 -10.3721 -19.6299
ltibia 13.7242
lfoot -16.0092 5.0438
ltoes -63.6224
10
root 6.71295 16.6039 35.0599 -170.37 0.698564 178.75
lowerback -8.87929 2.08011 -6.27992
upperback 1.84932 3.44626 0.759033
thorax 6.52714 1.43211 4.81865
lowerneck -6.27232 -0.0261343 -4.02726
upperneck 34.225 -7.05196 8.89657
head 12.8856 -4.11955 2.94804
rclavicle -1.45858e-014 9.14409e-015
rhumerus -34.5045 -26.0863 -78.4752
rradius 23.2402
rwrist 20.0299
rhand -16.8187 -41.7842
rfingers 7.12502
rthumb 9.41024 -71.5542
lclavicle -1.45858e-014 9.14409e-015
lhumerus -25.6016 3.8268 90.2593
lradius 13.9806
lwrist -35.3883
lhand -29.5147 -23.5151
lfingers 7.12502
lthumb -2.84883 6.44562
rfemur -5.75357 0.542908 19.5311
rtibia 7.21772
rfoot -10.8539 -2.75537
rtoes -31.1643
lfemur -9.5642 -10.3597 -19.8118
ltibia 13.5314
lfoot -15.9287 4.86375
ltoes -63.3651
